<?xml version="1.0" encoding="UTF-8"?>
<svg xmlns="http://www.w3.org/2000/svg" version="1.1" viewBox="0 0 735 355.2">
  <defs>
    <style>
      .cls-1 {
        fill: #ff690a;
      }

      .cls-2 {
        fill: #373232;
      }
    </style>
  </defs>
  <!-- Generator: Adobe Illustrator 28.6.0, SVG Export Plug-In . SVG Version: 1.2.0 Build 709)  -->
  <g>
    <g id="Layer_1">
      <path class="cls-1" d="M555.5,234.2h120v9.6h-120v-9.6Z"/>
      <path class="cls-2" d="M215.3,243.8h-31.4l-18.1-60h-.4l-17.7,60h-31.4l-40.7-108.6h37.1l20.8,63.3h.7l18.4-63.3h27.9l19,63.3h.4l21-63.3h35.5l-40.9,108.6Z"/>
      <path class="cls-2" d="M346.1,243.8v-108.6h35.8v108.6h-35.8ZM384.4,105.2c0,10.8-9.2,19.6-20.5,19.6s-20.5-8.8-20.5-19.6,9.2-19.6,20.5-19.6,20.5,8.8,20.5,19.6Z"/>
      <path class="cls-2" d="M555.5,166.3c-3.4-1.2-7.1-1.7-10.7-1.7-7.7-.3-15.1,3-19.9,8.9-2.5,3-5.1,9-5.6,15.7-.2,3.8-.6,54.5-.6,54.5h-35.1v-108.5h34.4v15.7h.4c2.7-5.5,6.7-10.2,11.8-13.6,5.2-3.5,11.4-5.4,17.6-5.3,2.6,0,5.1.3,7.6.9v33.4Z"/>
      <path class="cls-2" d="M335.6,166.3c-3.4-1.2-7.1-1.7-10.7-1.7-7.7-.3-15.1,3-19.9,8.9-2.5,3-5.1,9-5.6,15.7-.2,3.8-.6,54.5-.6,54.5h-35.2v-108.5h34.4v15.7h.4c2.7-5.5,6.7-10.2,11.8-13.6,5.2-3.6,11.4-5.4,17.7-5.3,2.6,0,5.1.3,7.6.9v33.4Z"/>
      <path class="cls-2" d="M469.5,217c-3.3,1.1-6.8,1.7-10.3,1.7-5.1,0-8.6-1.3-10.6-3.8-2-2.6-2.9-6.4-2.9-11.5v-41.6h24v-26.6h-24v-28.6h-35.1v28.6h-18.4v26.6h18.6v45.9c0,5.4.6,10.7,2,15.9,1.2,4.5,3.4,8.7,6.4,12.2,3.2,3.6,7.3,6.3,11.9,7.9,4.9,1.8,11,2.7,18.3,2.7,3.8,0,7.6-.3,11.3-1,3-.5,5.9-1.2,8.8-2.1v-26.3Z"/>
    </g>
  </g>
</svg>