<svg xmlns="http://www.w3.org/2000/svg" viewBox="0 0 601 162"><defs><style>.a{fill:#ff690a;}.b{fill:#373232;}</style></defs><title>WRITR Logo Postive RGB</title><path class="a" d="M480.5,149.2h120v9.6h-120Z"/><path class="b" d="M140.33,158.78H108.89l-18.11-60h-.44L72.66,158.78H41.22L.5,50.15H37.57l20.78,63.27H59L77.37,50.15h27.91l19,63.27h.45l21-63.27h35.54Z"/><path class="b" d="M271.07,158.78V50.15h35.75V158.78ZM309.4,20.22c0,10.84-9.16,19.63-20.46,19.63s-20.45-8.79-20.45-19.63S277.65.6,288.94.6,309.4,9.39,309.4,20.22Z"/><path class="b" d="M480.5,81.33a32,32,0,0,0-10.68-1.67,24.34,24.34,0,0,0-19.94,8.92c-2.46,3-5.13,9-5.56,15.66-.25,3.85-.61,54.54-.61,54.54H408.57V50.28H443V66h.44a35.32,35.32,0,0,1,11.77-13.62,30.3,30.3,0,0,1,17.65-5.27,32.47,32.47,0,0,1,7.63.87Z"/><path class="b" d="M260.61,81.33a32,32,0,0,0-10.68-1.67A24.34,24.34,0,0,0,230,88.58c-2.46,3-5.13,9-5.56,15.66-.25,3.85-.61,54.54-.61,54.54H188.68V50.28h34.44V66h.44a35.23,35.23,0,0,1,11.77-13.62A30.28,30.28,0,0,1,253,47.1a32.47,32.47,0,0,1,7.63.87Z"/><path class="b" d="M394.52,132a32.89,32.89,0,0,1-10.33,1.7q-7.63,0-10.57-3.83t-2.94-11.5V76.76h23.95V50.15H370.68V21.58h-35.1V50.15H317.16V76.76H335.8v45.93a59.94,59.94,0,0,0,2,15.86,30.9,30.9,0,0,0,6.43,12.24,28.35,28.35,0,0,0,11.88,7.88q7.41,2.73,18.31,2.73a66.6,66.6,0,0,0,11.33-1,62,62,0,0,0,8.81-2.11Z"/></svg>